<svg width="99" height="95" viewBox="0 0 99 95" fill="none" xmlns="http://www.w3.org/2000/svg">
<path d="M41.4844 71.25C41.4844 71.25 44.5781 68.2812 49.2188 68.2812C53.8594 68.2812 56.9531 71.25 56.9531 71.25M89.4375 47.5C89.4375 68.8156 71.4319 86.0938 49.2188 86.0938C27.0056 86.0938 9 68.8156 9 47.5C9 26.1844 27.0056 8.90625 49.2188 8.90625C71.4319 8.90625 89.4375 26.1844 89.4375 47.5ZM70.875 53.4375C70.875 54.2249 70.5491 54.98 69.9689 55.5367C69.3887 56.0935 68.6018 56.4062 67.7812 56.4062C66.9607 56.4062 66.1738 56.0935 65.5936 55.5367C65.0134 54.98 64.6875 54.2249 64.6875 53.4375C64.6875 52.6501 65.0134 51.895 65.5936 51.3383C66.1738 50.7815 66.9607 50.4688 67.7812 50.4688C68.6018 50.4688 69.3887 50.7815 69.9689 51.3383C70.5491 51.895 70.875 52.6501 70.875 53.4375ZM33.75 53.4375C33.75 54.2249 33.4241 54.98 32.8439 55.5367C32.2637 56.0935 31.4768 56.4062 30.6562 56.4062C29.8357 56.4062 29.0488 56.0935 28.4686 55.5367C27.8884 54.98 27.5625 54.2249 27.5625 53.4375C27.5625 52.6501 27.8884 51.895 28.4686 51.3383C29.0488 50.7815 29.8357 50.4688 30.6562 50.4688C31.4768 50.4688 32.2637 50.7815 32.8439 51.3383C33.4241 51.895 33.75 52.6501 33.75 53.4375Z" stroke="#8B8B8B" stroke-width="2" stroke-linecap="round" stroke-linejoin="round"/>
</svg>
